<svg version="1.1" viewBox="0.0 0.0 480.0 480.0" fill="none" stroke="none" stroke-linecap="square" stroke-miterlimit="10" xmlns:xlink="http://www.w3.org/1999/xlink" xmlns="http://www.w3.org/2000/svg"><clipPath id="p.0"><path d="m0 0l480.0 0l0 480.0l-480.0 0l0 -480.0z" clip-rule="nonzero"/></clipPath><g clip-path="url(#p.0)"><path fill="#000000" fill-opacity="0.0" d="m0 0l480.0 0l0 480.0l-480.0 0z" fill-rule="evenodd"/><path fill="#ffffff" d="m292.33505 46.23622l90.63696 51.921516l52.335083 89.92074l0 103.84303l-52.335083 89.920746l-90.63696 51.92154l-104.67012 0l-90.636955 -51.92154l-52.335064 -89.920746l0 -103.84303l52.335064 -89.92074l90.636955 -51.921516z" fill-rule="evenodd"/><path stroke="#999999" stroke-width="24.0" stroke-linejoin="round" stroke-linecap="butt" d="m292.33505 46.23622l90.63696 51.921516l52.335083 89.92074l0 103.84303l-52.335083 89.920746l-90.63696 51.92154l-104.67012 0l-90.636955 -51.92154l-52.335064 -89.920746l0 -103.84303l52.335064 -89.92074l90.636955 -51.921516z" fill-rule="evenodd"/><path fill="#adfffa" d="m127.92913 298.19946l26.125984 -33.333313l14.412079 -1.8031616l109.91077 113.514435l-100.90027 0z" fill-rule="evenodd"/><path stroke="#999999" stroke-width="24.0" stroke-linejoin="round" stroke-linecap="butt" d="m127.92913 298.19946l26.125984 -33.333313l14.412079 -1.8031616l109.91077 113.514435l-100.90027 0z" fill-rule="evenodd"/><path fill="#000000" fill-opacity="0.0" d="m51.711285 296.68765l107.20735 -33.333313l118.91864 -15.314972l154.05511 -55.855637l-90.09186 -18.018372l-49.548553 -45.94751l4.6561584 112.916016l-27.178497 8.706024l157.20212 51.87401l-71.5538 -21.46457l27.863495 94.816284l-120.71915 -124.325455l-102.703415 12.6141815l-2.703415 -48.6483l136.01312 -86.41733l-107.183716 -41.51181l100.90027 -36.937008l-102.70079 36.937008l-75.67717 83.784775l-11.711288 -64.866135l12.611549 67.566925l50.45144 42.343826l50.451447 -80.18109l-22.522308 -46.845146l-80.1811 82.88189z" fill-rule="evenodd"/><path stroke="#999999" stroke-width="24.0" stroke-linejoin="round" stroke-linecap="butt" d="m51.711285 296.68765l107.20735 -33.333313l118.91864 -15.314972l154.05511 -55.855637l-90.09186 -18.018372l-49.548553 -45.94751l4.6561584 112.916016l-27.178497 8.706024l157.20212 51.87401l-71.5538 -21.46457l27.863495 94.816284l-120.71915 -124.325455l-102.703415 12.6141815l-2.703415 -48.6483l136.01312 -86.41733l-107.183716 -41.51181l100.90027 -36.937008l-102.70079 36.937008l-75.67717 83.784775l-11.711288 -64.866135l12.611549 67.566925l50.45144 42.343826l50.451447 -80.18109l-22.522308 -46.845146l-80.1811 82.88189z" fill-rule="evenodd"/><path fill="#adfffa" d="m192.79265 88.28871l17.118118 50.448822l-39.640427 65.7664l118.918625 -73.87401z" fill-rule="evenodd"/><path stroke="#999999" stroke-width="24.0" stroke-linejoin="round" stroke-linecap="butt" d="m192.79265 88.28871l17.118118 50.448822l-39.640427 65.7664l118.918625 -73.87401z" fill-rule="evenodd"/><path fill="#adfffa" d="m49.3653 290.99078l55.140125 -118.01837l-12.149292 -66.66667l-47.66322 81.08136z" fill-rule="evenodd"/><path stroke="#999999" stroke-width="24.0" stroke-linejoin="round" stroke-linecap="butt" d="m49.3653 290.99078l55.140125 -118.01837l-12.149292 -66.66667l-47.66322 81.08136z" fill-rule="evenodd"/><path fill="#adfffa" d="m385.5853 370.27036l-31.994751 -92.40683l68.93176 25.740143z" fill-rule="evenodd"/><path stroke="#999999" stroke-width="24.0" stroke-linejoin="round" stroke-linecap="butt" d="m385.5853 370.27036l-31.994751 -92.40683l68.93176 25.740143z" fill-rule="evenodd"/><path fill="#adfffa" d="m297.2966 236.93701l-5.4042053 -104.50394l48.648285 41.440933l83.78479 18.018387z" fill-rule="evenodd"/><path stroke="#999999" stroke-width="24.0" stroke-linejoin="round" stroke-linecap="butt" d="m297.2966 236.93701l-5.4042053 -104.50394l48.648285 41.440933l83.78479 18.018387z" fill-rule="evenodd"/><path fill="#000000" fill-opacity="0.0" d="m51.711285 293.45047l124.325455 86.68674l-51.351707 -81.325775l26.125984 -33.06665l13.514435 -2.6817932l114.41469 114.392456l103.6037 -2.6791992l-88.28873 58.087982l-107.20735 0.8956604l-14.414688 -56.304443l210.811 -1.7861328" fill-rule="evenodd"/><path stroke="#999999" stroke-width="24.0" stroke-linejoin="round" stroke-linecap="butt" d="m51.711285 293.45047l124.325455 86.68674l-51.351707 -81.325775l26.125984 -33.06665l13.514435 -2.6817932l114.41469 114.392456l103.6037 -2.6791992l-88.28873 58.087982l-107.20735 0.8956604l-14.414688 -56.304443l210.811 -1.7861328" fill-rule="evenodd"/></g></svg>